<svg width="140" height="140" viewBox="0 0 140 140" fill="none" xmlns="http://www.w3.org/2000/svg">
<g clip-path="url(#clip0_568_2)">
<rect width="140" height="140" fill="black"/>
<path d="M42.676 115.802C30.25 115.802 11.284 97.054 11.284 83.538C11.284 75.908 14.336 69.804 26.544 69.804H28.724V51.71C28.724 45.17 27.634 41.246 25.89 39.284C23.056 36.014 20.004 35.796 11.938 35.796L13.9 10.944H19.786C37.662 10.944 46.382 14.868 51.396 21.844C55.756 27.948 57.936 34.052 57.936 48.658V69.804H93.47V8.54599L122.682 10.944V99.234C122.682 105.774 123.554 109.916 125.516 111.878C128.568 114.93 131.402 115.148 139.468 115.148L137.506 140H131.62C113.744 140 104.806 136.076 100.01 129.318C95.65 123.214 93.47 116.02 93.47 101.414V94.438H57.936V98.58C57.936 111.006 52.486 115.802 42.676 115.802Z" fill="white"/>
</g>
<defs>
<clipPath id="clip0_568_2">
<rect width="140" height="140" fill="white"/>
</clipPath>
</defs>
</svg>
