<svg width="140" height="140" viewBox="0 0 140 140" fill="none" xmlns="http://www.w3.org/2000/svg">
<g clip-path="url(#clip0_568_2)">
<rect width="140" height="140" fill="#161923"/>
<path d="M42.676 112.802C30.25 112.802 11.284 94.054 11.284 80.538C11.284 72.908 14.336 66.804 26.544 66.804H28.724V48.71C28.724 42.17 27.634 38.246 25.89 36.284C23.056 33.014 20.004 32.796 11.938 32.796L13.9 7.944H19.786C37.662 7.944 46.382 11.868 51.396 18.844C55.756 24.948 57.936 31.052 57.936 45.658V66.804H93.47V5.54599L122.682 7.944V96.234C122.682 102.774 123.554 106.916 125.516 108.878C128.568 111.93 131.402 112.148 139.468 112.148L137.506 137H131.62C113.744 137 104.806 133.076 100.01 126.318C95.65 120.214 93.47 113.02 93.47 98.414V91.438H57.936V95.58C57.936 108.006 52.486 112.802 42.676 112.802Z" fill="#FEFEFE" fill-opacity="0.7"/>
<path d="M22.992 86V69.2H26.208L33.36 81.056H31.656L38.688 69.2H41.88L41.928 86H38.28L38.256 74.792H38.928L33.312 84.224H31.56L25.824 74.792H26.64V86H22.992ZM53.5699 86V83.48L53.3299 82.928V78.416C53.3299 77.616 53.0819 76.992 52.5859 76.544C52.1059 76.096 51.3619 75.872 50.3539 75.872C49.6659 75.872 48.9859 75.984 48.3139 76.208C47.6579 76.416 47.0979 76.704 46.6339 77.072L45.2899 74.456C45.9939 73.96 46.8419 73.576 47.8339 73.304C48.8259 73.032 49.8339 72.896 50.8579 72.896C52.8259 72.896 54.3539 73.36 55.4419 74.288C56.5299 75.216 57.0739 76.664 57.0739 78.632V86H53.5699ZM49.6339 86.192C48.6259 86.192 47.7619 86.024 47.0419 85.688C46.3219 85.336 45.7699 84.864 45.3859 84.272C45.0019 83.68 44.8099 83.016 44.8099 82.28C44.8099 81.512 44.9939 80.84 45.3619 80.264C45.7459 79.688 46.3459 79.24 47.1619 78.92C47.9779 78.584 49.0419 78.416 50.3539 78.416H53.7859V80.6H50.7619C49.8819 80.6 49.2739 80.744 48.9379 81.032C48.6179 81.32 48.4579 81.68 48.4579 82.112C48.4579 82.592 48.6419 82.976 49.0099 83.264C49.3939 83.536 49.9139 83.672 50.5699 83.672C51.1939 83.672 51.7539 83.528 52.2499 83.24C52.7459 82.936 53.1059 82.496 53.3299 81.92L53.9059 83.648C53.6339 84.48 53.1379 85.112 52.4179 85.544C51.6979 85.976 50.7699 86.192 49.6339 86.192ZM68.3104 72.896C69.3344 72.896 70.2464 73.104 71.0464 73.52C71.8624 73.92 72.5024 74.544 72.9664 75.392C73.4304 76.224 73.6624 77.296 73.6624 78.608V86H69.9184V79.184C69.9184 78.144 69.6864 77.376 69.2224 76.88C68.7744 76.384 68.1344 76.136 67.3024 76.136C66.7104 76.136 66.1744 76.264 65.6944 76.52C65.2304 76.76 64.8624 77.136 64.5904 77.648C64.3344 78.16 64.2064 78.816 64.2064 79.616V86H60.4624V68.192H64.2064V76.664L63.3664 75.584C63.8304 74.72 64.4944 74.056 65.3584 73.592C66.2224 73.128 67.2064 72.896 68.3104 72.896ZM83.5579 86.192C82.0859 86.192 80.7899 85.904 79.6699 85.328C78.5659 84.752 77.7099 83.968 77.1019 82.976C76.4939 81.968 76.1899 80.824 76.1899 79.544C76.1899 78.248 76.4859 77.104 77.0779 76.112C77.6859 75.104 78.5099 74.32 79.5499 73.76C80.5899 73.184 81.7659 72.896 83.0779 72.896C84.3419 72.896 85.4779 73.168 86.4859 73.712C87.5099 74.24 88.3179 75.008 88.9099 76.016C89.5019 77.008 89.7979 78.2 89.7979 79.592C89.7979 79.736 89.7899 79.904 89.7739 80.096C89.7579 80.272 89.7419 80.44 89.7259 80.6H79.2379V78.416H87.7579L86.3179 79.064C86.3179 78.392 86.1819 77.808 85.9099 77.312C85.6379 76.816 85.2619 76.432 84.7819 76.16C84.3019 75.872 83.7419 75.728 83.1019 75.728C82.4619 75.728 81.8939 75.872 81.3979 76.16C80.9179 76.432 80.5419 76.824 80.2699 77.336C79.9979 77.832 79.8619 78.424 79.8619 79.112V79.688C79.8619 80.392 80.0139 81.016 80.3179 81.56C80.6379 82.088 81.0779 82.496 81.6379 82.784C82.2139 83.056 82.8859 83.192 83.6539 83.192C84.3419 83.192 84.9419 83.088 85.4539 82.88C85.9819 82.672 86.4619 82.36 86.8939 81.944L88.8859 84.104C88.2939 84.776 87.5499 85.296 86.6539 85.664C85.7579 86.016 84.7259 86.192 83.5579 86.192ZM96.6345 86.192C95.5305 86.192 94.4665 86.064 93.4425 85.808C92.4345 85.536 91.6345 85.2 91.0425 84.8L92.2905 82.112C92.8825 82.48 93.5785 82.784 94.3785 83.024C95.1945 83.248 95.9945 83.36 96.7785 83.36C97.6425 83.36 98.2505 83.256 98.6025 83.048C98.9705 82.84 99.1545 82.552 99.1545 82.184C99.1545 81.88 99.0105 81.656 98.7225 81.512C98.4505 81.352 98.0825 81.232 97.6185 81.152C97.1545 81.072 96.6425 80.992 96.0825 80.912C95.5385 80.832 94.9865 80.728 94.4265 80.6C93.8665 80.456 93.3545 80.248 92.8905 79.976C92.4265 79.704 92.0505 79.336 91.7625 78.872C91.4905 78.408 91.3545 77.808 91.3545 77.072C91.3545 76.256 91.5865 75.536 92.0505 74.912C92.5305 74.288 93.2185 73.8 94.1145 73.448C95.0105 73.08 96.0825 72.896 97.3305 72.896C98.2105 72.896 99.1065 72.992 100.019 73.184C100.931 73.376 101.691 73.656 102.299 74.024L101.051 76.688C100.427 76.32 99.7945 76.072 99.1545 75.944C98.5305 75.8 97.9225 75.728 97.3305 75.728C96.4985 75.728 95.8905 75.84 95.5065 76.064C95.1225 76.288 94.9305 76.576 94.9305 76.928C94.9305 77.248 95.0665 77.488 95.3385 77.648C95.6265 77.808 96.0025 77.936 96.4665 78.032C96.9305 78.128 97.4345 78.216 97.9785 78.296C98.5385 78.36 99.0985 78.464 99.6585 78.608C100.219 78.752 100.723 78.96 101.171 79.232C101.635 79.488 102.011 79.848 102.299 80.312C102.587 80.76 102.731 81.352 102.731 82.088C102.731 82.888 102.491 83.6 102.011 84.224C101.531 84.832 100.835 85.312 99.9225 85.664C99.0265 86.016 97.9305 86.192 96.6345 86.192ZM112.889 72.896C113.913 72.896 114.825 73.104 115.625 73.52C116.441 73.92 117.081 74.544 117.545 75.392C118.009 76.224 118.241 77.296 118.241 78.608V86H114.497V79.184C114.497 78.144 114.265 77.376 113.801 76.88C113.353 76.384 112.713 76.136 111.881 76.136C111.289 76.136 110.753 76.264 110.273 76.52C109.809 76.76 109.441 77.136 109.169 77.648C108.913 78.16 108.785 78.816 108.785 79.616V86H105.041V68.192H108.785V76.664L107.945 75.584C108.409 74.72 109.073 74.056 109.937 73.592C110.801 73.128 111.785 72.896 112.889 72.896Z" fill="#161923"/>
</g>
<defs>
<clipPath id="clip0_568_2">
<rect width="140" height="140" fill="white"/>
</clipPath>
</defs>
</svg>
